<svg width="157" height="13" viewBox="0 0 157 13" xmlns="http://www.w3.org/2000/svg">
<path d="M0.53 0.479999H5.03V12H0.53V0.479999ZM25.4226 8.472L23.7486 9.426V0.479999H28.2486V12H23.7486L10.1946 4.152L11.8686 3.18V12H7.36859V0.479999H11.8686L25.4226 8.472ZM34.8151 7.14V8.58H48.4951V12H30.3151V0.479999H48.4591V3.9H34.8151V5.34H45.9751V7.14H34.8151ZM49.7488 7.77H54.6628C54.7468 8.022 54.9928 8.238 55.4008 8.418C55.8088 8.586 56.3548 8.718 57.0388 8.814C57.7348 8.898 58.5388 8.94 59.4508 8.94C60.3508 8.94 61.0588 8.916 61.5748 8.868C62.1028 8.808 62.4748 8.712 62.6908 8.58C62.9068 8.436 63.0148 8.244 63.0148 8.004C63.0148 7.776 62.8408 7.602 62.4928 7.482C62.1448 7.35 61.5268 7.26 60.6388 7.212C59.7508 7.164 58.5028 7.14 56.8948 7.14C55.6948 7.14 54.6568 7.086 53.7808 6.978C52.9168 6.858 52.2028 6.678 51.6388 6.438C51.0868 6.186 50.6788 5.874 50.4148 5.502C50.1508 5.118 50.0188 4.662 50.0188 4.134C50.0188 3.222 50.3248 2.472 50.9368 1.884C51.5608 1.284 52.4968 0.839999 53.7448 0.551999C55.0048 0.252 56.5768 0.102 58.4608 0.102C61.2208 0.102 63.3268 0.504 64.7788 1.308C66.2428 2.1 66.9748 3.246 66.9748 4.746H62.3128C62.2528 4.35 61.8808 4.05 61.1968 3.846C60.5128 3.63 59.5408 3.522 58.2808 3.522C57.0328 3.522 56.1028 3.594 55.4908 3.738C54.8908 3.882 54.5908 4.128 54.5908 4.476C54.5908 4.656 54.6748 4.8 54.8428 4.908C55.0108 5.016 55.2988 5.106 55.7068 5.178C56.1268 5.238 56.7148 5.28 57.4708 5.304C58.2268 5.328 59.1868 5.34 60.3508 5.34C61.6348 5.34 62.7268 5.406 63.6268 5.538C64.5268 5.658 65.2528 5.844 65.8048 6.096C66.3688 6.348 66.7768 6.672 67.0288 7.068C67.2808 7.452 67.4068 7.908 67.4068 8.436C67.4068 9.348 67.1188 10.092 66.5428 10.668C65.9668 11.244 65.0548 11.67 63.8068 11.946C62.5588 12.222 60.9268 12.36 58.9108 12.36C57.7708 12.36 56.7208 12.294 55.7608 12.162C54.8128 12.03 53.9668 11.838 53.2228 11.586C52.4788 11.322 51.8488 11.004 51.3328 10.632C50.8168 10.248 50.4208 9.822 50.1448 9.354C49.8808 8.874 49.7488 8.346 49.7488 7.77ZM68.2107 0.479999H86.9307V3.9H68.2107V0.479999ZM75.3207 3.666H79.8207V12H75.3207V3.666ZM92.7737 7.14V8.58H106.454V12H88.2737V0.479999H106.418V3.9H92.7737V5.34H103.934V7.14H92.7737ZM107.617 0.479999H126.337V3.9H107.617V0.479999ZM114.727 3.666H119.227V12H114.727V3.666ZM127.95 0.479999H132.45V12H127.95V0.479999ZM156.119 7.194C156.059 8.334 155.645 9.288 154.877 10.056C154.109 10.824 152.975 11.4 151.475 11.784C149.987 12.168 148.103 12.36 145.823 12.36C144.083 12.36 142.523 12.264 141.143 12.072C139.763 11.892 138.587 11.58 137.615 11.136C136.643 10.68 135.899 10.062 135.383 9.282C134.867 8.502 134.609 7.518 134.609 6.33C134.609 5.142 134.867 4.152 135.383 3.36C135.899 2.556 136.643 1.92 137.615 1.452C138.587 0.971999 139.763 0.629999 141.143 0.426C142.523 0.222 144.083 0.12 145.823 0.12C148.103 0.12 149.993 0.33 151.493 0.75C152.993 1.158 154.127 1.764 154.895 2.568C155.663 3.372 156.077 4.35 156.137 5.502H151.457C151.313 5.118 151.049 4.782 150.665 4.494C150.281 4.194 149.705 3.96 148.937 3.792C148.169 3.624 147.131 3.54 145.823 3.54C144.287 3.54 143.039 3.636 142.079 3.828C141.119 4.008 140.417 4.302 139.973 4.71C139.529 5.118 139.307 5.658 139.307 6.33C139.307 6.942 139.529 7.44 139.973 7.824C140.417 8.208 141.119 8.49 142.079 8.67C143.039 8.85 144.287 8.94 145.823 8.94C147.131 8.94 148.163 8.862 148.919 8.706C149.687 8.55 150.263 8.34 150.647 8.076C151.031 7.8 151.295 7.506 151.439 7.194H156.119Z" />
</svg>
